# xmcd
#
# Track frame offsets:
#	150
#	18791
#	36366
#	52204
#	69273
#	81034
#	97838
#	108693
#	123619
#	140550
#	157272
#	174428
#	189784
#	206322
#	218829
#	232642
#	249169
#	265456
#
# Disc length: 3751
#
# Revision: 5
# Processed by: cddbd v1.5.1PL0 Copyright (c) Steve Scherf et al.
# Submitted via: FreeRIP 2.60 
# Normalized: r4:DSETVAR1,TDELIM( - )
#
DISCID=f10ea512
DTITLE=Various Artist - Promo Only Country Radio July 2002
DYEAR=2002
DGENRE=Country
TTITLE0=Montgomery Gentry - My Town
TTITLE1=Chad Brock - A Mans Gotta Do
TTITLE2=Rascal Flatts - These Days
TTITLE3=Ty Herndon - A Few Short Years
TTITLE4=Emerson Drive - Fall Into Me
TTITLE5=Little Big Town - Everything Changes
TTITLE6=Dwight Yoakam - Sitting Pretty
TTITLE7=Marcel - Country Rock Star
TTITLE8=Willie Nelson - Maria (Shut Up And Kiss Me)
TTITLE9=Neal Mccoy - What If
TTITLE10=James Otto - The Ball
TTITLE11=Jack Ingram - One Thing
TTITLE12=Dusty Drake - And Then
TTITLE13=Leland Martin - Stone Cold Fingers
TTITLE14=Chad Simmons - Heaven Sent
TTITLE15=Steve Azar - I Don't Have To Be Me('Til Monday)(Live)
TTITLE16=George Strait - Living And Living Well(Live)
TTITLE17=Brad Paisely - I'm Gonna Miss Her(The Fishin' Song)(Live)
EXTD=
EXTT0=
EXTT1=
EXTT2=
EXTT3=
EXTT4=
EXTT5=
EXTT6=
EXTT7=
EXTT8=
EXTT9=
EXTT10=
EXTT11=
EXTT12=
EXTT13=
EXTT14=
EXTT15=
EXTT16=
EXTT17=
PLAYORDER=
